<?xml version="1.0" encoding="iso-8859-1"?>
<!-- Generator: Adobe Illustrator 19.0.0, SVG Export Plug-In . SVG Version: 6.00 Build 0)  -->
<svg version="1.1" id="Layer_1" xmlns="http://www.w3.org/2000/svg" xmlns:xlink="http://www.w3.org/1999/xlink" x="0px" y="0px"
	 viewBox="0 0 473.654 473.654" style="enable-background:new 0 0 473.654 473.654;" xml:space="preserve">
<circle style="fill:#A2D4DE;" cx="236.827" cy="236.827" r="236.827"/>
<circle style="fill:#70BFC8;" cx="226.057" cy="236.827" r="178.561"/>
<g>
	<path style="fill:#43B665;" d="M318.503,158.476c0,0-38.222,7.898-51.909,0.561c0,0-9.128-11.843-34.793-1.69
		c0,0-45.066,27.086-45.638,54.164c0,0-12.554,53.607,34.797,60.936c0,0,49.628-16.357,55.899,2.823c0,0,1.716,23.701,6.279,28.776
		c0,0,7.412,10.897,6.84,17.486c0,0-5.127,22.007,1.713,38.94c0,0,4.57,14.667,3.998,19.184c0,0,43.353-12.412,57.04-53.038
		c0,0,7.991-28.219,8.556-35.552c0,0,11.413-32.725,14.263-42.885c0,0,10.261-30.466-6.847-26.517c0,0-11.978-11.29-20.534-19.749
		C339.609,193.452,323.069,161.299,318.503,158.476z"/>
	<path style="fill:#43B665;" d="M356.722,200.796l-47.919-44.007c0,0,10.269-9.031,6.847-14.102
		c-3.425-5.086-10.834,1.687-17.112,1.687c-6.275,0-14.831,5.078-18.257,0.557c-3.422-4.514-5.703-3.381-9.121-0.557
		c-3.422,2.823-9.697,7.337-10.273,4.51c-0.568-2.82-10.83-1.687-11.413-4.51c-0.557-2.823,1.713-10.721-3.414-9.027
		c-5.131,1.687-12.543,7.341-13.698,10.16c-1.137,2.82-5.123,11.286-9.121,11.286c-3.986,0-14.259,2.251-15.972-1.133
		c-1.705-3.388-5.127-14.678-1.705-18.058c3.422-3.384,20.171,0.187,19.397-3.949c-0.778-4.132-2.752-13.216-0.232-14.506
		c2.513-1.286,9.349-15.964,13.915-17.658c4.566-1.69,16.548,4.514,18.26,0.565c0,0,0.565-11.847-1.713-13.541
		c-2.285-1.69-3.998-6.772-7.984-6.211c-3.998,0.568-5.707,4.521-2.853,6.211c2.853,1.694,5.123,8.466,3.422,8.466
		c-1.713,0-17.12,1.122-17.684-2.82c-0.576-3.953,1.713-13.545,6.836-16.929c5.138-3.381,15.972-2.82,19.401-1.133
		c3.425,1.698,7.416-1.687,8.556-4.506c1.148-2.82-16.211-12.266-21.349-12.266c0,0,135.186,10.089,158.393,148.304
		c0,0-14.405-47.455-24.098-50.279c0,0-5.131,3.388-8.556,2.823c-3.425-0.561-20.534-11.29-21.675-8.463
		c-1.148,2.823,7.988,12.408,17.684,13.534c9.697,1.133,10.269,2.259,10.837,7.341c0.565,5.075,2.277,12.98,1.144,18.055
		C376.119,195.714,369.272,210.953,356.722,200.796z"/>
	<path style="fill:#43B665;" d="M215.25,100.363c0,0-4.566,2.82-6.84,6.765c-2.285,3.956-2.285,7.341-2.285,7.341
		s2.891,1.683,5.811,1.698c2.924,0.007,10.736-2.827,10.736-6.776C222.673,105.437,215.25,100.363,215.25,100.363z"/>
	<path style="fill:#43B665;" d="M208.41,66.508c0,0-13.687,16.361-20.534,18.051c-6.851,1.698-18.253,7.337-21.11,9.596
		c-2.853,2.259-12.55-1.694-6.843-6.204c5.695-4.521,21.102-14.678,17.684-15.807c-3.425-1.126-18.829,9.592-25.107,14.109
		c-6.271,4.51-11.406,11.275-14.255,15.796c-2.861,4.517-2.285,16.364-8.556,18.619c-6.279,2.259-33.664,13.537-42.788,21.443
		c-9.121,7.894-18.952,13.728-22.954,21.622c-3.99,7.898,2.019-12.61,5.55-20.175c0,0,24.251-43.207,79.586-70.293
		C149.089,73.277,191.298,62.559,208.41,66.508z"/>
	<path style="fill:#43B665;" d="M48.686,265.117c0,0-5.707-30.47,0.568-33.293c6.275-2.816,8.171-3.414,13.694,2.259
		c5.52,5.677,13.115,15.231,15.964,20.313c2.861,5.075,13.126,11.282,13.126,15.231c0,3.949-2.281,13.541,0,18.051
		c2.281,4.517,5.703,5.086,10.837,7.337c5.138,2.255,14.827,5.643,20.538,10.725c5.699,5.078,13.687,11.286,11.974,18.051
		c-1.705,6.776-5.131,16.929-3.994,20.878c1.148,3.949,5.138,10.714,0.576,13.537c-4.57,2.823-7.988,2.262-7.419,7.337
		c0.576,5.075,6.29,20.859,8.006,23.679C132.557,389.226,61.43,358.958,48.686,265.117z"/>
	<path style="fill:#43B665;" d="M56.479,202.419c1.137-3.942,3.986-23.69,0.561-23.69c-6.694,24.696-6.455,24.375-9.125,42.882"/>
</g>
<g>
	<path style="fill:#357180;" d="M69.392,150.731c-1.649,0-3.242-0.901-4.05-2.476c-5.232-10.254-7.199-17.318-7.277-17.613
		c-0.662-2.42,0.759-4.918,3.179-5.579c2.42-0.662,4.914,0.759,5.579,3.175l0,0c0.015,0.067,1.832,6.544,6.612,15.889
		c1.141,2.233,0.254,4.966-1.974,6.107C70.79,150.57,70.08,150.731,69.392,150.731z"/>
	<path style="fill:#357180;" d="M223.888,228.458c-2.408,0-4.416-1.888-4.532-4.319c-0.123-2.502,1.802-4.633,4.312-4.753
		c11.443-0.561,23.518-1.933,35.892-4.076c2.476-0.415,4.82,1.234,5.247,3.698c0.426,2.472-1.23,4.82-3.698,5.25
		c-12.733,2.203-25.179,3.616-36.996,4.192C224.038,228.454,223.963,228.458,223.888,228.458z M187.259,227.452
		c-0.168,0-0.34-0.007-0.512-0.026c-12.905-1.436-25.268-4.072-36.73-7.838c-2.382-0.782-3.68-3.347-2.898-5.729
		c0.785-2.382,3.351-3.687,5.729-2.894c10.875,3.568,22.621,6.069,34.905,7.438c2.494,0.277,4.286,2.52,4.009,5.015
		C191.504,225.736,189.537,227.452,187.259,227.452z M118.29,204.285c-0.834,0-1.672-0.228-2.427-0.707
		c-10.706-6.787-20.448-14.958-28.956-24.277c-1.69-1.855-1.563-4.727,0.292-6.417c1.851-1.687,4.723-1.559,6.413,0.292
		c7.965,8.728,17.09,16.379,27.116,22.737c2.113,1.339,2.745,4.147,1.402,6.268C121.263,203.541,119.79,204.285,118.29,204.285z"/>
	<path style="fill:#357180;" d="M296.219,216.275c-1.997,0-3.826-1.328-4.379-3.351c-0.654-2.419,0.77-4.914,3.194-5.572
		c5.632-1.529,11.436-3.235,17.254-5.063c2.408-0.759,4.944,0.576,5.688,2.965c0.755,2.397-0.572,4.94-2.965,5.692
		c-5.935,1.866-11.854,3.605-17.595,5.164C297.016,216.222,296.612,216.275,296.219,216.275z"/>
</g>
<path style="fill:#ECCB19;" d="M426.308,148.431c-4.828-9.682-20.104-3.422-23.877-1.541c0,0-0.995,0.538-2.734,1.481
	c-13.002-8.676-40.38-26.11-49.624-25.481c-1.795,0.12-7.464,2.633-6.268,3.721c9.525,8.706,27.022,24.363,36.24,32.598
	c-17.224,9.618-39.606,22.422-48.869,29.101c-6.043-3.878-14.618-8.926-17.894-8.698c-0.774,0.049-3.209,1.129-2.696,1.593
	c3.829,3.508,10.658,9.618,14.771,13.298c-0.841,1.324-1.511,3.044-0.49,4.271c0.939,1.133,2.498,1.705,3.826,1.997
	c0.453,5.426,1.264,14.977,1.769,20.313c0.067,0.699,2.39-0.598,2.902-1.189c2.161-2.498,3.287-12.483,3.826-19.655
	c11.118-3.321,35.272-13.38,53.442-21.173c0.987,11.753,3.085,36.782,4.357,50.237c0.165,1.612,5.572-1.402,6.757-2.775
	c6.268-7.229,8.777-41.524,9.585-56.46c1.387-0.613,2.165-0.957,2.165-0.957C417.28,167.223,431.139,158.117,426.308,148.431z"/>
<g>
</g>
<g>
</g>
<g>
</g>
<g>
</g>
<g>
</g>
<g>
</g>
<g>
</g>
<g>
</g>
<g>
</g>
<g>
</g>
<g>
</g>
<g>
</g>
<g>
</g>
<g>
</g>
<g>
</g>
</svg>
